<?xml version="1.0" encoding="UTF-8" standalone="no"?>
<!-- Created with Inkscape (http://www.inkscape.org/) -->

<svg
   xmlns:dc="http://purl.org/dc/elements/1.1/"
   xmlns:cc="http://creativecommons.org/ns#"
   xmlns:rdf="http://www.w3.org/1999/02/22-rdf-syntax-ns#"
   xmlns:svg="http://www.w3.org/2000/svg"
   xmlns="http://www.w3.org/2000/svg"
   xmlns:sodipodi="http://sodipodi.sourceforge.net/DTD/sodipodi-0.dtd"
   xmlns:inkscape="http://www.inkscape.org/namespaces/inkscape"
   width="63mm"
   height="74mm"
   viewBox="0 0 63 74"
   version="1.1"
   id="svg8"
   inkscape:version="0.92.1 r15371"
   sodipodi:docname="LogoCA.svg">
  <defs
     id="defs2" />
  <sodipodi:namedview
     id="base"
     pagecolor="#ffffff"
     bordercolor="#666666"
     borderopacity="1.0"
     inkscape:pageopacity="0.0"
     inkscape:pageshadow="2"
     inkscape:zoom="1.4"
     inkscape:cx="238.91875"
     inkscape:cy="103.09174"
     inkscape:document-units="mm"
     inkscape:current-layer="layer1"
     showgrid="false"
     inkscape:window-width="1366"
     inkscape:window-height="745"
     inkscape:window-x="-8"
     inkscape:window-y="-8"
     inkscape:window-maximized="1" />
  <metadata
     id="metadata5">
    <rdf:RDF>
      <cc:Work
         rdf:about="">
        <dc:format>image/svg+xml</dc:format>
        <dc:type
           rdf:resource="http://purl.org/dc/dcmitype/StillImage" />
        <dc:title></dc:title>
      </cc:Work>
    </rdf:RDF>
  </metadata>
  <g
     inkscape:label="Camada 1"
     inkscape:groupmode="layer"
     id="layer1"
     transform="translate(0,-223)">
    <path
       style="fill:#ffffff;stroke-width:0.29158163"
       d="m 22.477077,286.43215 v -10.18826 l -1.708854,-0.91081 c -0.939873,-0.50095 -2.639508,-1.76019 -3.776972,-2.79834 -8.4578867,-7.71935 -10.1109668,-20.92143 -3.859144,-30.82049 0.651495,-1.03158 2.28028,-2.92754 3.61952,-4.21327 1.905958,-1.8298 3.029979,-2.62992 5.17365,-3.6828 3.751436,-1.84255 5.828211,-2.33977 9.736627,-2.33117 5.54907,0.0122 10.496625,1.93094 14.486701,5.61811 4.741823,4.38186 7.354801,9.96507 7.725367,16.50699 0.4901,8.65194 -4.028088,17.4336 -11.083701,21.54258 l -1.943545,1.13187 v 10.16692 10.16693 h -9.184822 -9.184827 z m 15.45383,3.77346 v -3.49898 h -6.269003 -6.269008 v 3.49898 3.49898 h 6.269008 6.269003 z m 0,-7.72691 v -1.31212 h -6.269003 -6.269008 v 1.31212 1.31211 h 6.269008 6.269003 z m -0.04777,-5.94573 -0.113532,-2.00937 2.13187,-1.05487 c 1.172525,-0.58019 2.199117,-1.23011 2.281299,-1.44428 0.08216,-0.21417 -0.530583,-1.52722 -1.361709,-2.91787 l -1.511138,-2.52846 -7.739319,0.0776 -7.739332,0.0776 -1.534247,2.6143 -1.534251,2.6143 1.190439,0.78811 c 0.654744,0.43346 1.733607,0.99554 2.397468,1.24907 l 1.207032,0.46097 -0.115334,2.04115 -0.115334,2.04115 h 6.334817 6.334811 z m -11.991242,-19.0574 4.510801,-7.7998 h 1.218686 1.218695 l 2.894808,5.02978 c 1.592145,2.76638 4.271022,7.38094 5.953053,10.25459 l 3.058246,5.22481 1.127958,-1.28846 c 3.139759,-3.58651 4.881275,-8.01265 5.107852,-12.98185 0.187962,-4.12227 -0.37093,-6.8464 -2.174403,-10.5984 -2.560551,-5.32707 -7.824039,-9.49522 -13.500957,-10.6914 -7.913642,-1.66749 -16.120718,2.2647 -20.507893,9.82575 -1.744775,3.00703 -2.563837,6.36208 -2.55683,10.4733 0.0088,5.18254 1.762072,10.09372 4.871837,13.64705 l 1.353069,1.54606 1.457133,-2.42081 c 0.801424,-1.33144 3.486994,-5.93072 5.967945,-10.22062 z m 8.773632,1.07825 c -1.61928,-2.81482 -3.045856,-5.01261 -3.170174,-4.88399 -0.199616,0.20653 -4.686809,7.86311 -5.513416,9.40764 -0.315173,0.58891 -0.26468,0.59422 5.65486,0.59422 h 5.972874 z m 23.53027,8.20037 c -1.603701,-0.68391 -2.91367,-1.36204 -2.91105,-1.50694 0.01017,-0.56415 0.790089,-2.47572 0.976084,-2.39252 0.108192,0.0484 1.473497,0.60219 3.034012,1.23064 1.560523,0.62846 2.837306,1.30129 2.837306,1.4952 0,0.3615 -0.827382,2.48394 -0.951552,2.44096 -0.03794,-0.0131 -1.3811,-0.58344 -2.9848,-1.26734 z M 1.3224944,266.74259 C 1.0901228,266.18645 0.9,265.60912 0.9,265.45963 c 0,-0.14948 1.0824973,-0.72491 2.4055488,-1.27872 3.7870674,-1.58525 3.5783034,-1.57408 4.1199691,-0.22032 0.259843,0.6494 0.4724407,1.22744 0.4724407,1.28452 0,0.11692 -5.6954207,2.50865 -5.9738532,2.50865 -0.098515,0 -0.3692393,-0.45502 -0.601611,-1.01117 z m 3.3818014,-22.34994 c -1.5159578,-0.63405 -2.8164889,-1.21304 -2.8900691,-1.28662 -0.2409436,-0.24094 0.6287038,-2.46933 0.9636777,-2.46933 0.179663,0 1.3723698,0.43677 2.6504607,0.97059 1.2780891,0.53383 2.5491345,1.0529 2.8245412,1.15352 0.463702,0.1694 0.467093,0.26475 0.04585,1.28917 -0.2501917,0.60843 -0.5411287,1.19383 -0.6465294,1.30088 -0.105401,0.10704 -1.4319684,-0.32414 -2.9479261,-0.95821 z m 50.4219612,0.45113 c -0.15628,-0.41104 -0.41272,-0.9876 -0.569868,-1.28123 -0.25286,-0.47249 0.0405,-0.67146 2.551591,-1.73044 1.560515,-0.65812 2.968518,-1.19498 3.128881,-1.19302 0.253249,0.003 1.431494,2.3553 1.238598,2.4727 -0.09328,0.0568 -2.878914,1.20209 -4.672361,1.92104 l -1.392696,0.55831 z M 41.211201,230.11449 c -0.681566,-0.29367 -1.239218,-0.60241 -1.239218,-0.6861 0,-0.0837 0.537956,-1.45461 1.195461,-3.04651 l 1.195469,-2.89435 1.064291,0.43736 c 0.585365,0.24056 1.164333,0.5318 1.28661,0.64722 0.15962,0.15067 -1.897507,5.73519 -2.225169,6.0407 -0.02099,0.0196 -0.595871,-0.20464 -1.277444,-0.49832 z m -21.91378,-2.63495 c -0.670566,-1.62352 -1.180749,-2.98746 -1.133743,-3.03097 0.367941,-0.34062 2.41499,-0.98162 2.56491,-0.80316 0.300312,0.35749 2.407945,5.64194 2.29114,5.74456 -0.267044,0.23462 -2.00034,1.04141 -2.237349,1.04141 -0.146161,0 -0.814393,-1.32833 -1.484958,-2.95184 z"
       id="path21"
       inkscape:connector-curvature="0"
       sodipodi:nodetypes="cccccscccccccccccccccccccccccccccccccccscccccccccccccccccsccsscsssscccsccscsccccscccsccsscccssccccccccccscccsccccccccccsc" />
  </g>
</svg>
