<?xml version="1.0" encoding="UTF-8" standalone="no"?>
<!-- Created with Inkscape (http://www.inkscape.org/) -->

<svg
   xmlns:dc="http://purl.org/dc/elements/1.1/"
   xmlns:cc="http://creativecommons.org/ns#"
   xmlns:rdf="http://www.w3.org/1999/02/22-rdf-syntax-ns#"
   xmlns:svg="http://www.w3.org/2000/svg"
   xmlns="http://www.w3.org/2000/svg"
   xmlns:sodipodi="http://sodipodi.sourceforge.net/DTD/sodipodi-0.dtd"
   xmlns:inkscape="http://www.inkscape.org/namespaces/inkscape"
   width="160mm"
   height="77mm"
   viewBox="0 0 160 77"
   version="1.1"
   id="svg8"
   inkscape:version="0.92.3 (2405546, 2018-03-11)"
   sodipodi:docname="logoSMD.svg">
  <defs
     id="defs2" />
  <sodipodi:namedview
     id="base"
     pagecolor="#ffffff"
     bordercolor="#666666"
     borderopacity="1.0"
     inkscape:pageopacity="0.0"
     inkscape:pageshadow="2"
     inkscape:zoom="0.49497475"
     inkscape:cx="323.89888"
     inkscape:cy="538.95687"
     inkscape:document-units="mm"
     inkscape:current-layer="layer1"
     showgrid="false"
     inkscape:window-width="1366"
     inkscape:window-height="705"
     inkscape:window-x="-8"
     inkscape:window-y="-8"
     inkscape:window-maximized="1" />
  <metadata
     id="metadata5">
    <rdf:RDF>
      <cc:Work
         rdf:about="">
        <dc:format>image/svg+xml</dc:format>
        <dc:type
           rdf:resource="http://purl.org/dc/dcmitype/StillImage" />
        <dc:title></dc:title>
      </cc:Work>
    </rdf:RDF>
  </metadata>
  <g
     inkscape:label="Camada 1"
     inkscape:groupmode="layer"
     id="layer1"
     transform="translate(0,-220)">
    <path
       style="fill:#ffab00;fill-opacity:1;stroke-width:0.08466667"
       d="m 21.299547,295.54663 c -3.77323,-0.21529 -7.78569,-1.47723 -10.541,-3.31523 -1.6271797,-1.08546 -3.2922697,-2.64391 -4.3523097,-4.07357 -0.91843,-1.2387 -1.6831,-3.00037 -2.01628,-4.64522 -0.22333,-1.10249 -0.20005,-3.40807 0.046,-4.5576 0.38859,-1.81534 1.47134,-4.36038 2.27981,-5.3588 l 0.16076,-0.19853 0.27568,0.79526 c 1.32674,3.82725 4.0676697,7.03345 7.4015497,8.65796 4.07169,1.98403 9.49266,1.99831 12.01369,0.0317 1.30423,-1.01743 1.94664,-2.3527 1.94465,-4.04204 -0.003,-2.3303 -0.9903,-4.19029 -2.91346,-5.48727 -1.45714,-0.98269 -2.65445,-1.39462 -5.5955,-1.9251 -0.89354,-0.16117 -2.2405,-0.44577 -2.99326,-0.63244 -7.3873397,-1.83199 -11.6188497,-5.43461 -13.1477397,-11.1937 -0.67857,-2.55604 -0.81697,-5.86578 -0.34263,-8.19342 0.98868,-4.8515 4.55731,-9.04183 10.0594797,-11.81194 2.32495,-1.17051 4.47035,-1.82136 7.29721,-2.21376 1.51688,-0.21055 4.89004,-0.21049 6.39233,0 2.80009,0.39255 4.88283,1.00368 7.112,2.08685 2.16214,1.0506 4.37079,2.70816 6.64971,4.99052 2.76153,2.76568 4.35936,5.3745 5.52602,9.02248 0.32035,1.00173 0.7791,2.80952 0.87014,3.429 l 0.056,0.381 -0.61568,-0.889 c -2.47662,-3.57609 -4.42101,-5.20382 -8.25285,-6.90881 -3.40661,-1.51579 -6.77248,-2.24232 -10.414,-2.24788 -1.80882,-0.003 -2.91587,0.0965 -4.4077,0.39531 -5.07972,1.01737 -7.89828,3.80914 -7.48693,7.41576 0.26452,2.31928 1.67288,3.86316 4.4005,4.82394 1.19153,0.41971 2.09198,0.64654 4.68767,1.18089 3.15507,0.6495 4.43849,1.04828 6.18697,1.92237 5.01791,2.50856 8.34202,7.24216 9.198,13.09818 0.22063,1.50935 0.23641,3.59042 0.0372,4.91302 -0.56876,3.77722 -2.27151,7.19855 -4.8683,9.78189 -3.51216,3.49397 -8.50331,5.11868 -14.64779,4.76811 z m 38.56567,-0.23237 c -5.02012,-1.04857 -8.12988,-3.86011 -9.11451,-8.24042 -0.18367,-0.8171 -0.18601,-0.9281 -0.24456,-11.61999 -0.0384,-7.02093 -0.0927,-11.1206 -0.15518,-11.72633 -0.0528,-0.51223 -0.17453,-1.61713 -0.27044,-2.45533 -0.80466,-7.0325 -2.68255,-12.29263 -5.87577,-16.4585 -2.74027,-3.57497 -6.61571,-6.37114 -10.28987,-7.42429 l -0.71967,-0.20628 1.524,0.0376 c 2.55833,0.0631 4.4633,0.39261 6.858,1.1862 4.7976,1.58992 9.34448,4.68917 12.5333,8.54301 3.5166,4.24998 5.89427,9.47022 6.92827,15.21127 0.49982,2.77509 0.47743,1.91712 0.47743,18.29233 v 15.06633 l -0.35983,-0.006 c -0.19791,-0.003 -0.77894,-0.0931 -1.29117,-0.20006 z m 24.878849,0.0764 c -3.20433,-0.58632 -5.92864,-2.05289 -7.59342,-4.08775 -0.90595,-1.10733 -1.52674,-2.41104 -1.943,-4.08041 -0.17882,-0.71716 -0.17962,-0.77622 -0.227,-16.97567 l -0.0476,-16.256 -0.18444,-0.59593 c -0.42007,-1.35723 -0.953869,-2.23402 -1.917179,-3.14908 -1.31667,-1.25071 -2.7857,-1.83294 -4.62659,-1.83366 -3.33913,-0.001 -6.27971,2.74032 -6.64962,6.19973 l -0.0573,0.53639 -0.65503,-1.34072 c -1.53549,-3.14288 -3.69515,-6.46112 -5.91472,-9.08773 l -0.67968,-0.80433 0.86103,-0.87312 c 2.31516,-2.34764 4.6935,-3.8825 7.42836,-4.7939 4.52588,-1.50824 9.37505,-1.20504 13.595969,0.85011 1.23559,0.6016 2.00876,1.11367 3.08507,2.04323 3.74681,3.23593 6.12562,7.59009 6.78851,12.42568 0.081,0.59066 0.0996,5.39287 0.0826,21.35717 l -0.0219,20.59516 -0.35915,-0.009 c -0.19754,-0.005 -0.63178,-0.059 -0.96498,-0.12001 z m 38.905564,-0.29563 c -0.73589,-0.0882 -2.76114,-0.58721 -3.88274,-0.95662 -4.3122,-1.42031 -8.0757,-3.70205 -11.33522,-6.87236 -4.26052,-4.1439 -7.0968,-9.33488 -8.25821,-15.11422 -0.493214,-2.45426 -0.499524,-2.57534 -0.555984,-10.668 -0.0521,-7.46062 -0.0531,-7.49572 -0.24334,-8.12347 -0.19705,-0.6502 -0.64877,-1.61945 -0.96662,-2.074 -0.33181,-0.47452 -1.19868,-1.3332 -1.66996,-1.65419 -1.27925,-0.87128 -2.33728,-1.20434 -3.85234,-1.21269 -1.83136,-0.0101 -3.34886,0.58207 -4.66401,1.82004 l -0.43069,0.40541 -0.40708,-1.11242 c -0.51846,-1.4168 -1.71756,-3.82423 -2.49973,-5.0187 -0.743,-1.13468 -1.17621,-1.70925 -2.09983,-2.78505 -0.3929,-0.45765 -0.68114,-0.86337 -0.64051,-0.9016 0.30017,-0.28255 1.72049,-1.13281 2.74456,-1.643 5.38975,-2.68518 11.68823,-2.49069 16.929634,0.52276 4.43914,2.55221 7.45933,6.83995 8.16825,11.59639 0.32905,2.20774 0.51182,5.26126 0.59416,9.92652 0.0791,4.47986 0.26454,7.22844 0.59987,8.89 0.55455,2.74789 1.84211,5.46357 3.65295,7.70467 0.67581,0.83639 2.17624,2.287 3.05278,2.95141 4.75584,3.60488 10.99015,4.62029 16.69799,2.71967 1.6383,-0.54553 3.75543,-1.6918 5.29166,-2.86504 0.7976,-0.60913 2.20763,-2.0094 2.91254,-2.89238 0.56223,-0.70426 0.90109,-1.19505 1.69402,-2.45366 l 0.18669,-0.29633 -0.0532,0.635 c -0.3831,4.57401 -2.25028,9.53657 -4.82621,12.827 -2.29882,2.93646 -6.54541,5.47831 -10.45487,6.2579 -1.72097,0.34318 -4.48205,0.53113 -5.68459,0.38696 z m 12.30091,-0.70101 c 1.59898,-0.81244 2.93021,-1.74984 4.17042,-2.9366 4.06738,-3.89209 6.31826,-9.69572 6.83076,-17.61225 0.17616,-2.72099 -0.0142,-7.65168 -0.39056,-10.11767 -0.64812,-4.24636 -2.89669,-8.27233 -6.13463,-10.98378 -2.61081,-2.18629 -5.61297,-3.55106 -9.01797,-4.09955 -1.28755,-0.20741 -3.96179,-0.20741 -5.24934,0 -3.84559,0.61945 -7.06468,2.21372 -9.76644,4.83685 -1.39196,1.35145 -2.3017,2.53136 -3.25112,4.21663 l -0.46435,0.82426 -0.0462,-2.73121 c -0.0361,-2.13451 -0.0834,-2.97291 -0.21672,-3.83761 -0.35246,-2.28653 -1.00419,-4.38932 -1.97554,-6.37401 -0.32708,-0.66829 -0.56236,-1.24357 -0.52284,-1.2784 0.86964,-0.76637 2.4891,-1.94634 3.63923,-2.65161 7.77839,-4.76982 17.36789,-5.62487 25.85429,-2.3053 2.09111,0.81797 4.61472,2.20338 6.39233,3.50926 l 0.93133,0.68418 0.0463,-6.03386 c 0.0503,-6.55107 0.055,-6.62031 0.55564,-8.20732 0.9956,-3.15608 3.47933,-5.46455 7.17196,-6.66589 0.9361,-0.30455 2.71406,-0.68564 3.1988,-0.68564 0.15772,0 0.16092,0.45932 0.16092,23.1164 0,25.11991 0.018,24.08395 -0.4649,26.69667 -1.32564,7.17166 -5.2736,13.53782 -11.13443,17.95446 -2.9819,2.24711 -6.19429,3.81782 -9.89927,4.84027 -0.57838,0.15961 -1.10758,0.2902 -1.176,0.2902 -0.0684,0 0.27279,-0.20182 0.75825,-0.44848 z"
       id="path826"
       inkscape:connector-curvature="0"
       sodipodi:nodetypes="cccccccccccccccccccsccccccccccccccsccccccccccccscscccccccccccccccccccccccccccccccccccccccccccsscccsccccccsscccsccsccsccccccccsccccsscccscc" />
  </g>
</svg>
